<?xml version="1.0" standalone="no"?>
<!DOCTYPE svg PUBLIC "-//W3C//DTD SVG 20010904//EN"
 "http://www.w3.org/TR/2001/REC-SVG-20010904/DTD/svg10.dtd">
<svg version="1.0" xmlns="http://www.w3.org/2000/svg"
 width="1764.000000pt" height="508.000000pt" viewBox="0 0 1764.000000 508.000000"
 preserveAspectRatio="xMidYMid meet">

<g transform="translate(0.000000,508.000000) scale(0.100000,-0.100000)"
fill="#000000" stroke="none">
<path d="M15106 2729 c-290 -1002 -526 -1822 -524 -1823 5 -4 423 -124 425
-122 4 3 1054 3639 1051 3641 -2 2 -91 28 -198 59 -107 32 -202 59 -211 62
-13 3 -106 -309 -543 -1817z"/>
<path d="M2612 2633 l3 -1668 233 -3 232 -2 1 392 0 393 125 115 c68 63 128
116 132 117 4 1 203 -227 442 -508 l435 -509 293 0 c172 0 292 4 290 9 -1 5
-254 300 -561 656 -307 355 -560 652 -563 658 -2 7 243 244 545 527 l550 515
-310 3 -310 2 -532 -525 -532 -526 -3 1010 -2 1011 -235 0 -235 0 2 -1667z"/>
<path d="M6700 3674 l0 -626 -57 52 c-136 121 -296 207 -473 251 -82 21 -117
24 -265 23 -149 -1 -182 -4 -265 -26 -442 -118 -760 -501 -825 -994 -39 -291
2 -565 120 -805 60 -122 116 -201 214 -302 141 -145 307 -243 500 -294 83 -23
118 -26 261 -27 143 -1 177 2 254 23 192 50 331 127 457 252 l79 77 0 -159 0
-159 233 2 232 3 3 1668 2 1667 -235 0 -235 0 0 -626z m-566 -709 c149 -26
307 -123 400 -244 103 -133 158 -279 178 -468 26 -253 -41 -503 -182 -680 -86
-107 -219 -195 -351 -230 -88 -23 -281 -23 -368 1 -206 56 -385 222 -469 436
-56 144 -77 303 -61 473 21 226 90 379 239 528 68 68 104 95 171 128 134 66
281 85 443 56z"/>
<path d="M13771 3287 c-486 -337 -884 -617 -884 -622 0 -10 1759 -1265 1774
-1265 6 0 8 122 7 302 l-3 303 -457 325 c-252 179 -457 327 -457 330 0 3 206
148 459 323 l460 318 0 300 c0 164 -3 299 -7 299 -5 0 -406 -276 -892 -613z"/>
<path d="M15934 3201 l-70 -248 238 -164 c130 -90 234 -167 230 -170 -4 -3
-164 -115 -357 -249 -192 -134 -354 -246 -358 -250 -11 -10 -227 -710 -227
-737 0 -13 2 -23 4 -23 11 0 1791 1262 1791 1270 0 10 -1157 820 -1172 820 -5
0 -40 -112 -79 -249z"/>
<path d="M8603 3379 c-286 -25 -568 -162 -746 -362 -230 -258 -337 -569 -324
-942 5 -157 20 -246 62 -371 73 -216 235 -430 428 -562 335 -230 781 -285
1197 -146 164 55 381 176 457 256 l32 33 -115 163 -116 163 -31 -25 c-136
-109 -266 -182 -386 -215 -197 -55 -479 -28 -659 63 -201 101 -339 276 -387
492 -8 38 -18 79 -20 92 l-5 22 911 0 911 0 -5 208 c-6 233 -21 322 -82 470
-58 142 -120 236 -230 347 -146 148 -291 234 -480 285 -65 18 -250 42 -299 39
-11 -1 -62 -5 -113 -10z m301 -445 c96 -25 193 -81 266 -154 97 -96 148 -195
165 -318 l7 -52 -665 0 -665 0 15 58 c82 316 367 506 732 486 47 -2 112 -11
145 -20z"/>
<path d="M470 3130 l0 -200 585 0 c322 0 585 -2 585 -5 0 -3 -263 -358 -585
-788 l-585 -781 0 -198 0 -198 875 0 875 0 0 200 0 200 -605 0 c-333 0 -605 3
-605 6 0 3 266 361 590 795 l590 789 0 190 0 190 -860 0 -860 0 0 -200z"/>
<path d="M10414 2145 l501 -1185 165 0 166 0 359 808 c197 444 434 977 526
1185 l167 377 -240 -2 -239 -3 -357 -837 c-196 -461 -358 -838 -361 -838 -4 0
-159 377 -346 838 l-340 837 -251 3 -251 2 501 -1185z"/>
</g>
</svg>
